<?xml version="1.0" encoding="utf-8"?>
<!-- Generator: Adobe Illustrator 25.0.0, SVG Export Plug-In . SVG Version: 6.00 Build 0)  -->
<svg version="1.1" id="Layer_1" xmlns="http://www.w3.org/2000/svg" xmlns:xlink="http://www.w3.org/1999/xlink" x="0px" y="0px"
	 viewBox="0 0 1920 1080" style="enable-background:new 0 0 1920 1080;" xml:space="preserve">
<style type="text/css">
	.st0{font-family:'Regattia-Bold';}
	.st1{font-size:104.6697px;}
</style>
<g>
	<text transform="matrix(1 0 0 1 762.1807 581.7785)" class="st0 st1">davisKING</text>
	<g>
		<g>
			<path d="M745.13,580.66c-0.65-0.03-1.61-0.16-2.85-0.37c-1.25-0.22-2.4-0.76-3.46-1.64c-1.06-0.87-2.78-3.09-5.14-6.64
				l-25.53-39.47l9.39-10.76c1.81-1.99,3.4-3.37,4.74-4.12c1.35-0.75,2.64-1.25,3.9-1.5c1.25-0.25,2.31-0.39,3.19-0.42
				s1.72-0.08,2.53-0.14v-1.5h-23.85v1.5l4.4,0.28c1.12,0.12,2.01,0.37,2.67,0.75c0.65,0.37,0.98,1,0.98,1.87
				c0,1-0.58,2.29-1.73,3.88c-1.16,1.59-3.43,4.37-6.83,8.32c-3.4,3.96-6.72,7.81-9.96,11.55c-3.24,3.74-5.77,6.67-7.58,8.79v-25.25
				l0.19-4.3c0.19-2.12,0.61-3.54,1.26-4.26c0.65-0.72,1.95-1.17,3.88-1.36l3.65-0.28v-1.5h-42.18v1.5l4.86,0.37
				c1.93,0.25,3.23,0.76,3.88,1.54s1.08,2.17,1.26,4.16l0.19,4.3v56.3h31.71v-1.5l-3.37-0.28c-1.93-0.25-3.23-0.73-3.88-1.45
				c-0.65-0.72-1.08-2.1-1.26-4.16l-0.19-4.3v-17.12l2.53-2.99c1.06,1.62,2.76,4.16,5.1,7.62s4.21,6.27,5.61,8.42
				c1.4,2.15,2.67,4.08,3.79,5.8c1.12,1.71,1.84,2.99,2.15,3.83c0.31,0.84,0.47,1.54,0.47,2.1c0,0.94-0.31,1.53-0.94,1.78
				c-0.62,0.25-1.59,0.44-2.9,0.56l-3.93,0.19v1.5h44.99v-1.5C746.36,580.74,745.79,580.69,745.13,580.66z"/>
		</g>
		<g>
			<path d="M652.87,550.01c0.07-2.18,0.27-4.61,0.59-7.28c0.32-2.68,1.03-5.07,2.14-7.17c1.11-2.1,2.77-3.16,4.98-3.16
				c1.71,0,3.21,0.47,4.5,1.39c1.05,0.76,1.76,1.8,2.15,3.13v-2.26c-0.75-1.12-1.75-2.19-3-3.22c-1.64-1.36-4.96-2.03-9.96-2.03
				c-6.85,0-12.42,2.39-16.71,7.17c-4.28,4.78-6.43,11.14-6.43,19.06c0,8.21,2.14,14.71,6.43,19.49c4.28,4.78,9.85,7.18,16.71,7.18
				c4.85,0,8.16-0.72,9.9-2.14c1.28-1.04,2.3-2.08,3.06-3.12v-2.78c-0.76,3.44-3.01,5.16-6.75,5.16c-2.29,0-3.98-1.07-5.09-3.21
				c-1.11-2.14-1.82-4.89-2.14-8.24c-0.32-3.36-0.48-5.71-0.48-7.07v-4.82C652.76,554.21,652.79,552.19,652.87,550.01z"/>
		</g>
		<polyline points="666.99,582.3 666.99,570.42 666.99,562.23 		"/>
		<path d="M731.63,473.7l-8.51,32.56H665.3l-8.51-32.56l19.15,6.86c-1.3,1.26-2.11,3.02-2.11,4.97c0,3.82,3.09,6.9,6.9,6.9
			c3.81,0,6.91-3.09,6.91-6.9c0-1.7-0.61-3.26-1.63-4.46c-0.25-0.29-0.52-0.56-0.81-0.81l-2.41-2.41l11.4-17.27l0.03-0.04l0.03,0.04
			l11.4,17.27l-2.41,2.41c-0.29,0.25-0.56,0.52-0.81,0.81c-1.02,1.2-1.63,2.76-1.63,4.46c0,3.82,3.09,6.9,6.91,6.9
			c3.81,0,6.9-3.09,6.9-6.9c0-1.95-0.81-3.71-2.11-4.97L731.63,473.7z"/>
	</g>
</g>
</svg>
